<?xml version="1.0" encoding="UTF-8"?>
<svg version="1.1" xmlns="http://www.w3.org/2000/svg" width="181" height="86">
<path d="M0 0 C8.32113038 6.58756155 14.16415692 14.62257456 19.9375 23.4375 C27.22433331 35.63973595 27.22433331 35.63973595 38 44 C35.04645539 36.37474301 31.67941888 29.2416929 27.59179688 22.16577148 C25.60897603 18.62304912 24.5431154 16.08098619 25 12 C26.6875 11.1875 26.6875 11.1875 29 11 C33.3214014 14.68759586 36.00003178 18.92226824 38.8125 23.8125 C39.21919922 24.50537109 39.62589844 25.19824219 40.04492188 25.91210938 C41.03677289 27.60409052 42.01935598 29.30149891 43 31 C43.495 30.505 43.495 30.505 44 30 C48.99936425 29.435257 52.81903393 29.24418172 57.125 32 C57.74375 32.66 58.3625 33.32 59 34 C58.73323796 32.01508358 58.73323796 32.01508358 58 30 C56.515 29.505 56.515 29.505 55 29 C55.59082014 27.51545194 56.19812655 26.03745649 56.8125 24.5625 C57.14894531 23.73878906 57.48539062 22.91507813 57.83203125 22.06640625 C59 20 59 20 62 19 C61.6390625 18.31292969 61.278125 17.62585938 60.90625 16.91796875 C60.21015625 15.56638672 60.21015625 15.56638672 59.5 14.1875 C58.80390625 12.84751953 58.80390625 12.84751953 58.09375 11.48046875 C57 9 57 9 57 6 C59.97 5.505 59.97 5.505 63 5 C65.97668068 8.49856625 68.12930344 11.93004979 70.125 16.0625 C70.62257813 17.08472656 71.12015625 18.10695313 71.6328125 19.16015625 C72.08398438 20.09730469 72.53515625 21.03445312 73 22 C73.66505067 23.33414011 74.33140642 24.66763186 75 26 C75.97582031 25.15695313 76.95164062 24.31390625 77.95703125 23.4453125 C79.24211231 22.33845436 80.5272727 21.23168833 81.8125 20.125 C82.45509766 19.56941406 83.09769531 19.01382812 83.75976562 18.44140625 C84.38173828 17.90644531 85.00371094 17.37148438 85.64453125 16.8203125 C86.21534424 16.32805176 86.78615723 15.83579102 87.37426758 15.32861328 C91.44726204 12 91.44726204 12 95 12 C95.75 14.1875 95.75 14.1875 96 17 C94.1875 19.8125 94.1875 19.8125 92 22 C91.34 22 90.68 22 90 22 C90 22.66 90 23.32 90 24 C88.46875 25.2890625 88.46875 25.2890625 86.5 26.625 C85.8503125 27.07101563 85.200625 27.51703125 84.53125 27.9765625 C83.77328125 28.48316406 83.77328125 28.48316406 83 29 C84.99181935 30.99181935 88.70893891 30.50819983 91.4375 30.6875 C92.5193457 30.75892212 92.5193457 30.75892212 93.62304688 30.83178711 C99.32529398 31.12798292 104.49477668 30.6012789 110 29 C109.896875 27.96875 109.79375 26.9375 109.6875 25.875 C110.09675008 20.80029899 111.46272683 19.53727317 115 16 C118.19574307 14.40212847 121.52394032 14.63518582 125 15 C127.4375 16.0625 127.4375 16.0625 129 18 C130 21.375 130 21.375 130 25 C128.0625 27.9375 128.0625 27.9375 126 30 C127.98 30 129.96 30 132 30 C132.99 27.69 133.98 25.38 135 23 C135.33 23 135.66 23 136 23 C136 29.27 136 35.54 136 42 C135.01 41.01 134.02 40.02 133 39 C129.71928903 38.23551692 129.71928903 38.23551692 126.0625 37.875 C119.16397508 37.04804749 119.16397508 37.04804749 117.00366211 36.41503906 C114.25363957 35.84539872 112.14130387 36.77857685 109.48828125 37.51074219 C104.23453497 38.54375902 98.83190176 38.20117003 93.5 38.125 C92.29601562 38.11597656 91.09203125 38.10695312 89.8515625 38.09765625 C86.9008321 38.07423775 83.95052311 38.04143993 81 38 C81.33 38.99 81.66 39.98 82 41 C83.29292969 41.09796875 84.58585938 41.1959375 85.91796875 41.296875 C99.40403007 42.4155165 111.73437927 43.84213671 123 52 C123.99 52.66 124.98 53.32 126 54 C126 54.66 126 55.32 126 56 C126.59296875 56.25523438 127.1859375 56.51046875 127.796875 56.7734375 C131.63231661 58.90877201 133.93303569 62.18046401 136 66 C136.78795645 69.54895586 136.80451696 72.65913839 134.875 75.875 C121.8088206 83.71470764 101.75137072 78.81865717 87.94921875 75.5546875 C71.70833323 71.43951775 55.95398915 66.06251822 41.75 57.0625 C37.24442071 54.38398633 34.40716857 53.22405739 29.24609375 54.33203125 C28.50488281 54.55246094 27.76367188 54.77289063 27 55 C25.62521484 55.37705078 25.62521484 55.37705078 24.22265625 55.76171875 C21.79601828 56.45941971 19.39609065 57.20463797 17 58 C17 60.76204437 17.21845872 63.37997256 17.5 66.125 C17.9716093 71.11343074 18.08210098 75.99184 18 81 C14.49223216 82.60355101 11.85645121 83.22036864 8 83 C7.2204542 80.19252545 6.8289851 77.57970192 6.68359375 74.671875 C6.64169922 73.87265625 6.59980469 73.0734375 6.55664062 72.25 C6.51732422 71.425 6.47800781 70.6 6.4375 69.75 C6.39431641 68.90953125 6.35113281 68.0690625 6.30664062 67.203125 C6.20091457 65.13559329 6.09998705 63.06781719 6 61 C5.44956024 61.1481163 4.89912048 61.2962326 4.33200073 61.44883728 C-1.40991459 62.99331429 -7.15288774 64.53380902 -12.89648438 66.07202148 C-15.03835862 66.64620057 -17.17996335 67.22138603 -19.32128906 67.79760742 C-22.40358889 68.62685197 -25.48684768 69.45244315 -28.5703125 70.27734375 C-29.52366486 70.53466782 -30.47701721 70.79199188 -31.45925903 71.05711365 C-35.95660575 72.25663245 -40.38221606 73.35135932 -45 74 C-45 72.68 -45 71.36 -45 70 C-28.16429387 63.74611383 -11.21497469 58.11739463 6 53 C5.5175876 49.12441354 5.02032992 45.25101526 4.51074219 41.37890625 C4.25757798 39.43323972 4.01533779 37.48616152 3.7734375 35.5390625 C2.53754176 26.22230998 1.13167931 16.23239188 -3.13574219 7.73974609 C-4 6 -4 6 -3.8125 3.875 C-3 2 -3 2 0 0 Z M63 20 C61.58275974 23.9375446 61.58275974 23.9375446 61 28 C63.12448478 30.79135579 63.12448478 30.79135579 66 33 C68.31247295 36.30353279 69.4298315 39.00882053 70 43 C71.32 42.34 72.64 41.68 74 41 C73.44570312 39.90300781 72.89140625 38.80601563 72.3203125 37.67578125 C71.58843442 36.22140813 70.85666955 34.76697804 70.125 33.3125 C69.76019531 32.59126953 69.39539063 31.87003906 69.01953125 31.12695312 C67.1820758 27.46874636 65.43861498 23.8388305 64 20 C63.67 20 63.34 20 63 20 Z M120 22 C119.01 23.485 119.01 23.485 118 25 C118.99 25 119.98 25 121 25 C121.33 24.01 121.66 23.02 122 22 C121.34 22 120.68 22 120 22 Z M10 24 C9.75585921 28.63867497 10.46207953 32.74972323 11.421875 37.25390625 C12.38250802 41.81691311 13.1797412 46.41004119 14 51 C15.75128818 50.71617054 17.50100003 50.42260471 19.25 50.125 C20.22453125 49.96257813 21.1990625 49.80015625 22.203125 49.6328125 C24.77264117 49.05144152 26.72071056 48.29159735 29 47 C27.71580959 45.32756598 26.42242815 43.66218553 25.125 42 C24.40570313 41.071875 23.68640625 40.14375 22.9453125 39.1875 C22.30335937 38.465625 21.66140625 37.74375 21 37 C20.34 37 19.68 37 19 37 C18.9071875 36.43796875 18.814375 35.8759375 18.71875 35.296875 C17.81855083 32.42015156 16.37514281 30.60161352 14.5 28.25 C13.8709375 27.45078125 13.241875 26.6515625 12.59375 25.828125 C12.0678125 25.22484375 11.541875 24.6215625 11 24 C10.67 24 10.34 24 10 24 Z M47 37 C47 37.99 47 38.98 47 40 C48.98 39.67 50.96 39.34 53 39 C52.67 38.34 52.34 37.68 52 37 C50.35 37 48.7 37 47 37 Z M61 38 C60.67 39.98 60.34 41.96 60 44 C61.65 43.67 63.3 43.34 65 43 C64.03114628 41.31503702 63.03013277 39.64821244 62 38 C61.67 38 61.34 38 61 38 Z M47 51 C51.59873549 54.70111244 56.76997995 56.63493925 62.1875 58.875 C63.79757935 59.54208984 63.79757935 59.54208984 65.44018555 60.22265625 C74.15993519 63.77382099 82.86415875 66.738262 92 69 C93.46373047 69.36544922 93.46373047 69.36544922 94.95703125 69.73828125 C103.11580366 71.49426887 114.05769957 73.3126972 121.44921875 68.9765625 C122.29097656 68.32429688 123.13273437 67.67203125 124 67 C123.51858638 62.66727738 121.25800007 60.72608169 118 58 C97.98378933 45.36406813 69.50904245 47.52274103 47 51 Z " fill="#0B2C7C" transform="translate(45,0)"/>
<path d="M0 0 C8.32113038 6.58756155 14.16415692 14.62257456 19.9375 23.4375 C27.33997977 35.43062386 27.33997977 35.43062386 38 44 C36.68 40.04 35.36 36.08 34 32 C38 34 38 34 38.7578125 36.12890625 C38.87898438 36.93199219 39.00015625 37.73507813 39.125 38.5625 C39.46228659 40.94252126 39.46228659 40.94252126 40 43 C40.66 43.33 41.32 43.66 42 44 C41.01 45.32 40.02 46.64 39 48 C34.74257863 47.52695318 32.74294902 45.1136178 30 42 C29.67 41.01 29.34 40.02 29 39 C27.515 38.01 27.515 38.01 26 37 C25.66918918 40.09740541 25.66918918 40.09740541 27.875 42.125 C29.85698834 44.03534196 29.85698834 44.03534196 32 45 C32 45.66 32 46.32 32 47 C30.515 47.495 30.515 47.495 29 48 C28.67 47.01 28.34 46.02 28 45 C26.515 44.505 26.515 44.505 25 44 C23.63823419 42.01924973 22.30406884 40.01920337 21 38 C20.34 37.67 19.68 37.34 19 37 C18.01512602 35.29288511 17.03367094 33.58347897 16.0859375 31.85546875 C14.62877822 29.36571819 12.86315549 27.19586183 11 25 C11.14179687 25.97324219 11.28359375 26.94648438 11.4296875 27.94921875 C12.04006999 32.23160194 12.59626545 36.5193244 13.125 40.8125 C13.27388672 41.9562207 13.27388672 41.9562207 13.42578125 43.12304688 C14.11483875 48.77032249 14.11483875 48.77032249 13 51 C12.01 50.505 12.01 50.505 11 50 C9.41095576 43.78114785 8.70883644 37.4055984 9 31 C8.34 30.67 7.68 30.34 7 30 C7 27.03 7 24.06 7 21 C9.25 20.75 9.25 20.75 12 21 C14.3125 23 14.3125 23 16 25 C14.04840862 19.76151789 12.10519096 16.90493774 8 13 C7.34 11.96875 6.68 10.9375 6 9.875 C3.88688069 6.83739099 2.17890473 5.76722006 -1 4 C-0.60167969 5.03447266 -0.60167969 5.03447266 -0.1953125 6.08984375 C2.03375041 12.02045272 3.80030616 17.78536972 5 24 C5.17402344 24.81339844 5.34804688 25.62679688 5.52734375 26.46484375 C6.54294344 31.27596931 7.24958542 36.00853644 7.70703125 40.90234375 C7.98411386 43.31275393 7.98411386 43.31275393 9.1875 46.75 C10 50 10 50 9.375 52.8125 C7.79712607 55.32275397 6.78980803 56.07006399 4 57 C3.01 57 2.02 57 1 57 C2.65 57.33 4.3 57.66 6 58 C6 58.99 6 59.98 6 61 C-0.29776535 62.69464815 -6.59671002 64.38485715 -12.89648438 66.07202148 C-15.03835862 66.64620057 -17.17996335 67.22138603 -19.32128906 67.79760742 C-22.40358889 68.62685197 -25.48684768 69.45244315 -28.5703125 70.27734375 C-29.52366486 70.53466782 -30.47701721 70.79199188 -31.45925903 71.05711365 C-35.95660575 72.25663245 -40.38221606 73.35135932 -45 74 C-45 72.68 -45 71.36 -45 70 C-28.16429387 63.74611383 -11.21497469 58.11739463 6 53 C5.5175876 49.12441354 5.02032992 45.25101526 4.51074219 41.37890625 C4.25757798 39.43323972 4.01533779 37.48616152 3.7734375 35.5390625 C2.53754176 26.22230998 1.13167931 16.23239188 -3.13574219 7.73974609 C-4 6 -4 6 -3.8125 3.875 C-3 2 -3 2 0 0 Z " fill="#092669" transform="translate(45,0)"/>
<path d="M0 0 C4.81612588 1.72653569 8.00215917 3.80172734 12 7 C13.68236331 7.74840427 15.36711657 8.49234269 17.06835938 9.19677734 C18.92451646 9.96861213 20.7598275 10.79000952 22.59375 11.61328125 C30.9525458 15.29140929 39.35032834 18.1208304 48.1875 20.4375 C49.1671875 20.69635986 50.146875 20.95521973 51.15625 21.22192383 C55.93030314 22.42492909 60.06162875 23.06432032 65 23 C65.93199219 23.32484375 66.86398438 23.6496875 67.82421875 23.984375 C71.90269302 25.28868411 75.56013167 25.29970416 79.8125 25.25 C81.00528564 25.24419922 81.00528564 25.24419922 82.22216797 25.23828125 C87.72677022 25.15708245 92.6997887 24.57043298 98 23 C97.814375 22.401875 97.62875 21.80375 97.4375 21.1875 C97 19 97 19 98 16 C97.34 16 96.68 16 96 16 C95.505 12.535 95.505 12.535 95 9 C98.61619737 12.49954585 99.92213561 13.77363581 100.25 18.9375 C100.182023 22.69662834 100.182023 22.69662834 98.875 24.875 C85.8088206 32.71470764 65.75137072 27.81865717 51.94921875 24.5546875 C34.30884591 20.08491098 17.91430382 13.83630247 2.36328125 4.3203125 C0.16018204 2.83742522 0.16018204 2.83742522 -2 3 C-2 2.34 -2 1.68 -2 1 C-1.34 0.67 -0.68 0.34 0 0 Z " fill="#051E62" transform="translate(81,51)"/>
<path d="M0 0 C3.74123976 4.2954975 6.34151874 8.99900452 9 14 C9.33 13.67 9.66 13.34 10 13 C14.99936425 12.435257 18.81903393 12.24418172 23.125 15 C23.74375 15.66 24.3625 16.32 25 17 C24.73323796 15.01508358 24.73323796 15.01508358 24 13 C23.01 12.67 22.02 12.34 21 12 C22.32 9.03 23.64 6.06 25 3 C26.32 3 27.64 3 29 3 C28.9071875 4.85625 28.9071875 4.85625 28.8125 6.75 C28.79921938 10.52169529 29.45147414 12.14565104 32 15 C32.625 16.9375 32.625 16.9375 33 19 C33.185625 19.9075 33.37125 20.815 33.5625 21.75 C33.706875 22.4925 33.85125 23.235 34 24 C33.01 23.67 32.02 23.34 31 23 C31 22.34 31 21.68 31 21 C30.01 21.33 29.02 21.66 28 22 C27.67 22.99 27.34 23.98 27 25 C23.50970582 26.47666292 19.72563614 26.07164685 16 26 C16 25.34 16 24.68 16 24 C14.68 24.33 13.36 24.66 12 25 C12 24.34 12 23.68 12 23 C11.01 22.67 10.02 22.34 9 22 C9.33 21.01 9.66 20.02 10 19 C11.98 19 13.96 19 16 19 C16 18.34 16 17.68 16 17 C16.99 17 17.98 17 19 17 C19.66 19.31 20.32 21.62 21 24 C22.32 24 23.64 24 25 24 C25 22.35 25 20.7 25 19 C24.34 19 23.68 19 23 19 C22.34 18.01 21.68 17.02 21 16 C19.03638136 15.42251197 19.03638136 15.42251197 16.875 15.3125 C15.59625 15.209375 14.3175 15.10625 13 15 C13 15.66 13 16.32 13 17 C10.69 17 8.38 17 6 17 C5.20688633 15.27149655 4.4155741 13.54216646 3.625 11.8125 C3.18414062 10.84957031 2.74328125 9.88664062 2.2890625 8.89453125 C1.12678149 6.28468208 0.04075219 3.66024041 -1 1 C-0.67 0.67 -0.34 0.34 0 0 Z M13 20 C13 20.99 13 21.98 13 23 C14.98 22.67 16.96 22.34 19 22 C18.67 21.34 18.34 20.68 18 20 C16.35 20 14.7 20 13 20 Z " fill="#082369" transform="translate(79,17)"/>
<path d="M0 0 C0.598125 0.226875 1.19625 0.45375 1.8125 0.6875 C1.296875 1.079375 0.78125 1.47125 0.25 1.875 C-1.4593036 3.59194573 -1.4593036 3.59194573 -0.9375 5.875 C-0.69 6.803125 -0.4425 7.73125 -0.1875 8.6875 C0.67069733 14.40881554 0.93294975 19.90591202 0.8125 25.6875 C-2.69526784 27.29105101 -5.33104879 27.90786864 -9.1875 27.6875 C-10.02941782 24.7626367 -10.30569313 22.18008344 -10.28515625 19.140625 C-10.28193359 18.29628906 -10.27871094 17.45195313 -10.27539062 16.58203125 C-10.26701172 15.70933594 -10.25863281 14.83664063 -10.25 13.9375 C-10.24548828 13.04933594 -10.24097656 12.16117188 -10.23632812 11.24609375 C-10.224574 9.05982671 -10.20814249 6.87369821 -10.1875 4.6875 C-7.1875 5.6875 -7.1875 5.6875 -4.1875 6.6875 C-4.5278125 5.7903125 -4.5278125 5.7903125 -4.875 4.875 C-5.1875 2.6875 -5.1875 2.6875 -4 0.875 C-2.1875 -0.3125 -2.1875 -0.3125 0 0 Z " fill="#093089" transform="translate(62.1875,55.3125)"/>
<path d="M0 0 C0 0.66 0 1.32 0 2 C3.3 1.67 6.6 1.34 10 1 C10 1.66 10 2.32 10 3 C12.475 3.495 12.475 3.495 15 4 C15.33 3.01 15.66 2.02 16 1 C16.99 1.33 17.98 1.66 19 2 C19 2.66 19 3.32 19 4 C20.98 3.34 22.96 2.68 25 2 C25 2.66 25 3.32 25 4 C25.99 3.67 26.98 3.34 28 3 C29.67002066 3.31610106 31.33639855 3.65169106 33 4 C35.86489571 4.02773758 38.71110389 3.93670149 41.57421875 3.83984375 C44 4 44 4 46 6 C45.67 6.33 45.34 6.66 45 7 C43.224575 6.89377799 41.44938893 6.77914611 39.67700195 6.63061523 C25.06870146 5.43751604 10.56719387 6.8151919 -4 8 C-4 8.99 -4 9.98 -4 11 C-9.94 10.01 -9.94 10.01 -16 9 C-15.67 7.68 -15.34 6.36 -15 5 C-13.02 5.495 -13.02 5.495 -11 6 C-10.34 5.01 -9.68 4.02 -9 3 C-9.33 2.34 -9.66 1.68 -10 1 C-6.78548731 -0.60725635 -3.56387464 -0.05748185 0 0 Z " fill="#0F348D" transform="translate(95,41)"/>
<path d="M0 0 C5.75 1.875 5.75 1.875 8 3 C8.8125 4.6875 8.8125 4.6875 9 7 C8.03238392 9.01586684 7.03432904 11.01753602 6 13 C6.33 13.66 6.66 14.32 7 15 C9.32156597 15.40729228 11.6568787 15.74438677 14 16 C13.67 17.32 13.34 18.64 13 20 C11.0412957 19.85923685 9.08303907 19.7122324 7.125 19.5625 C6.03445312 19.48128906 4.94390625 19.40007813 3.8203125 19.31640625 C1 19 1 19 -1 18 C-2.87862875 18.08744368 -4.75455181 18.24175542 -6.625 18.4375 C-7.62789062 18.53933594 -8.63078125 18.64117187 -9.6640625 18.74609375 C-10.43492187 18.82988281 -11.20578125 18.91367187 -12 19 C-10.32983325 17.28197747 -8.77092537 15.83637526 -6.8125 14.4375 C-6.214375 13.963125 -5.61625 13.48875 -5 13 C-5 12.34 -5 11.68 -5 11 C-5.66 11 -6.32 11 -7 11 C-6.40716379 7.60807637 -5.23256811 5.7892243 -2.9375 3.25 C-2.38964844 2.63640625 -1.84179688 2.0228125 -1.27734375 1.390625 C-0.85582031 0.93171875 -0.43429688 0.4728125 0 0 Z M1 6 C0.01 7.485 0.01 7.485 -1 9 C-0.01 9 0.98 9 2 9 C2.33 8.01 2.66 7.02 3 6 C2.34 6 1.68 6 1 6 Z " fill="#0C3290" transform="translate(164,16)"/>
<path d="M0 0 C5.50442942 0.34777441 9.31640034 0.87760023 14 4 C14.66 3.67 15.32 3.34 16 3 C16.33 3.66 16.66 4.32 17 5 C21.95959488 7.47979744 27.00551458 8.85252428 32.359375 10.2421875 C34.61676596 10.89001863 36.62624028 11.63965202 38.75 12.625 C41.9604466 14.14642063 41.9604466 14.14642063 45.5 14.5 C49.50390646 15.07198664 52.35598079 16.289542 56 18 C55.34 18.66 54.68 19.32 54 20 C47.33555883 19.65404958 41.19872109 18.17822389 34.8125 16.3125 C33.89557373 16.04703369 32.97864746 15.78156738 32.03393555 15.50805664 C20.81186718 12.16889344 10.37687033 7.40362372 0 2 C0 1.34 0 0.68 0 0 Z " fill="#0C3188" transform="translate(90,55)"/>
<path d="M0 0 C-3.20322242 2.71340928 -6.26274969 3.93064936 -10.25 5.1875 C-11.32765625 5.53167969 -12.4053125 5.87585937 -13.515625 6.23046875 C-14.74539062 6.61138672 -14.74539062 6.61138672 -16 7 C-15.35973877 6.823479 -14.71947754 6.64695801 -14.05981445 6.46508789 C-11.1445341 5.66242899 -8.22852759 4.86243977 -5.3125 4.0625 C-3.80139648 3.64581055 -3.80139648 3.64581055 -2.25976562 3.22070312 C-0.79506836 2.81948242 -0.79506836 2.81948242 0.69921875 2.41015625 C1.59471436 2.16402588 2.49020996 1.91789551 3.4128418 1.66430664 C5.92981875 1.01802049 8.44747238 0.48475899 11 0 C11 0.99 11 1.98 11 3 C4.70223465 4.69464815 -1.59671002 6.38485715 -7.89648438 8.07202148 C-10.03835862 8.64620057 -12.17996335 9.22138603 -14.32128906 9.79760742 C-17.40358889 10.62685197 -20.48684768 11.45244315 -23.5703125 12.27734375 C-25.00034103 12.66332985 -25.00034103 12.66332985 -26.45925903 13.05711365 C-30.95660575 14.25663245 -35.38221606 15.35135932 -40 16 C-40 14.68 -40 13.36 -40 12 C-3.01290279 -1.50645139 -3.01290279 -1.50645139 0 0 Z " fill="#081F61" transform="translate(40,58)"/>
<path d="M0 0 C2.5 0.3125 2.5 0.3125 5 1 C6 3 6 3 7 6 C7.66 6 8.32 6 9 6 C9 8.31 9 10.62 9 13 C2.85796909 15.72979152 -2.55167734 16.30174284 -9.1875 16.3125 C-10.34548096 16.32023437 -10.34548096 16.32023437 -11.52685547 16.328125 C-16.05837069 16.27344608 -19.73565216 15.70709938 -24 14 C-20.47546112 11.85046641 -17.39325932 11.65227681 -13.3125 11.4375 C-9.33729387 11.56917186 -9.33729387 11.56917186 -6 10 C-4.33382885 9.95936168 -2.66611905 9.957279 -1 10 C0.19595537 7.1628485 0.19595537 7.1628485 1 4 C0.34 3.01 -0.32 2.02 -1 1 C-0.67 0.67 -0.34 0.34 0 0 Z " fill="#093290" transform="translate(170,61)"/>
<path d="M0 0 C0.33 0 0.66 0 1 0 C1 6.27 1 12.54 1 19 C0.01 18.01 -0.98 17.02 -2 16 C-5.28071097 15.23551692 -5.28071097 15.23551692 -8.9375 14.875 C-15.83602492 14.04804749 -15.83602492 14.04804749 -17.99633789 13.41503906 C-20.74636043 12.84539872 -22.85869613 13.77857685 -25.51171875 14.51074219 C-30.76546503 15.54375902 -36.16809824 15.20117003 -41.5 15.125 C-42.70398438 15.11597656 -43.90796875 15.10695313 -45.1484375 15.09765625 C-48.0991679 15.07423775 -51.04947689 15.04143993 -54 15 C-54.33 16.32 -54.66 17.64 -55 19 C-55.99 18.67 -56.98 18.34 -58 18 C-57.34 15.69 -56.68 13.38 -56 11 C-53.36 11.33 -50.72 11.66 -48 12 C-48 12.66 -48 13.32 -48 14 C-44.91595192 13.88979143 -41.83308808 13.75924186 -38.75 13.625 C-37.87730469 13.5940625 -37.00460938 13.563125 -36.10546875 13.53125 C-35.26113281 13.49257813 -34.41679687 13.45390625 -33.546875 13.4140625 C-32.38430176 13.36693115 -32.38430176 13.36693115 -31.19824219 13.31884766 C-28.77995182 12.96808275 -27.13856778 12.15162282 -25 11 C-22.67578125 10.55078125 -22.67578125 10.55078125 -20.3125 10.3125 C-19.52488281 10.22613281 -18.73726562 10.13976563 -17.92578125 10.05078125 C-16.97251953 10.02564453 -16.97251953 10.02564453 -16 10 C-15.505 10.495 -15.505 10.495 -15 11 C-12.98405418 11.23427778 -10.961526 11.41336124 -8.9375 11.5625 C-7.83277344 11.64628906 -6.72804687 11.73007812 -5.58984375 11.81640625 C-4.30787109 11.90728516 -4.30787109 11.90728516 -3 12 C-2.67 11.01 -2.34 10.02 -2 9 C-4.31 9 -6.62 9 -9 9 C-9 8.67 -9 8.34 -9 8 C-7.6078125 7.9690625 -7.6078125 7.9690625 -6.1875 7.9375 C-2.99303786 7.37155641 -2.99303786 7.37155641 -1.93359375 5.375 C-1.20025229 3.61781467 -0.59224075 1.80962451 0 0 Z " fill="#082463" transform="translate(180,23)"/>
<path d="M0 0 C0.66 0 1.32 0 2 0 C3.15399634 5.1649739 4.07560009 10.21475336 4.4375 15.5 C4.72344033 19.38218991 5.44060918 22.68901573 6.6875 26.375 C7.69286124 29.47979206 8.05089345 30.72856828 7.4375 34 C5.78806399 36.29486749 4.66939137 37.11020288 2 38 C1.01 38 0.02 38 -1 38 C-1 38.99 -1 39.98 -1 41 C-4.5789158 42.03677778 -8.16369397 43.05160999 -11.75 44.0625 C-12.76578125 44.35705078 -13.7815625 44.65160156 -14.828125 44.95507812 C-16.29765625 45.3659668 -16.29765625 45.3659668 -17.796875 45.78515625 C-18.69760742 46.04176025 -19.59833984 46.29836426 -20.52636719 46.56274414 C-23.08185452 47.01446915 -24.57072388 46.83537352 -27 46 C-26.47043701 45.83395264 -25.94087402 45.66790527 -25.39526367 45.49682617 C-22.98954224 44.73658339 -20.58859512 43.96222405 -18.1875 43.1875 C-17.35412109 42.92646484 -16.52074219 42.66542969 -15.66210938 42.39648438 C-14.85966797 42.13544922 -14.05722656 41.87441406 -13.23046875 41.60546875 C-12.12288208 41.25198364 -12.12288208 41.25198364 -10.99291992 40.89135742 C-8.61180393 39.96858831 -8.61180393 39.96858831 -6 37 C-2.7 36.01 0.6 35.02 4 34 C2.68 22.78 1.36 11.56 0 0 Z " fill="#062365" transform="translate(47,19)"/>
<path d="M0 0 C0.75 2.1875 0.75 2.1875 1 5 C-0.8125 7.8125 -0.8125 7.8125 -3 10 C-3.66 10 -4.32 10 -5 10 C-5 10.66 -5 11.32 -5 12 C-6.75 13.2890625 -6.75 13.2890625 -9 14.625 C-9.7425 15.07101563 -10.485 15.51703125 -11.25 15.9765625 C-12.11625 16.48316406 -12.11625 16.48316406 -13 17 C-13.99 16.34 -14.98 15.68 -16 15 C-18.64632287 15.3121764 -18.64632287 15.3121764 -21 16 C-17.52440721 12.48009182 -13.96999527 9.08316076 -10.3125 5.75 C-9.35988281 4.87859375 -8.40726563 4.0071875 -7.42578125 3.109375 C-4.54602006 0.60523483 -3.81487242 0 0 0 Z " fill="#09236C" transform="translate(140,12)"/>
<path d="M0 0 C1.32 0 2.64 0 4 0 C3.938125 1.2375 3.87625 2.475 3.8125 3.75 C3.79921938 7.52169529 4.45147414 9.14565104 7 12 C7.625 13.9375 7.625 13.9375 8 16 C8.185625 16.9075 8.37125 17.815 8.5625 18.75 C8.706875 19.4925 8.85125 20.235 9 21 C8.01 20.67 7.02 20.34 6 20 C6 19.34 6 18.68 6 18 C5.01 18.33 4.02 18.66 3 19 C1.85343936 16.78877592 0.88490779 14.670069 0.0625 12.3125 C-0.288125 11.549375 -0.63875 10.78625 -1 10 C-1.99 9.67 -2.98 9.34 -4 9 C-2.68 6.03 -1.36 3.06 0 0 Z " fill="#112259" transform="translate(104,20)"/>
<path d="M0 0 C5.44866717 0.64101967 10.61022531 1.57792717 15.8984375 3.046875 C15.5684375 4.036875 15.2384375 5.026875 14.8984375 6.046875 C15.6821875 6.315 16.4659375 6.583125 17.2734375 6.859375 C19.8984375 8.046875 19.8984375 8.046875 21.8984375 11.046875 C17.02179741 11.39520644 14.12793745 10.46373212 9.8984375 8.046875 C9.8984375 7.386875 9.8984375 6.726875 9.8984375 6.046875 C9.13917969 6.00949219 8.37992188 5.97210938 7.59765625 5.93359375 C6.60378906 5.86785156 5.60992187 5.80210938 4.5859375 5.734375 C3.59980469 5.67636719 2.61367187 5.61835937 1.59765625 5.55859375 C-1.34540707 5.00064687 -2.28339249 4.36147368 -4.1015625 2.046875 C-2.1015625 0.046875 -2.1015625 0.046875 0 0 Z " fill="#0B2F87" transform="translate(146.1015625,44.953125)"/>
<path d="M0 0 C5.75 1.875 5.75 1.875 8 3 C8.99105268 5.39504397 9.12574923 6.60425978 8.3359375 9.08984375 C7 11 7 11 4.6171875 11.609375 C3.71226562 11.65578125 2.80734375 11.7021875 1.875 11.75 C0.96492187 11.80671875 0.05484375 11.8634375 -0.8828125 11.921875 C-1.58148438 11.94765625 -2.28015625 11.9734375 -3 12 C-3.66 11.01 -4.32 10.02 -5 9 C-5.66 9.66 -6.32 10.32 -7 11 C-6.40716379 7.60807637 -5.23256811 5.7892243 -2.9375 3.25 C-2.38964844 2.63640625 -1.84179688 2.0228125 -1.27734375 1.390625 C-0.85582031 0.93171875 -0.43429688 0.4728125 0 0 Z M1 6 C0.01 7.485 0.01 7.485 -1 9 C-0.01 9 0.98 9 2 9 C2.33 8.01 2.66 7.02 3 6 C2.34 6 1.68 6 1 6 Z " fill="#0D308C" transform="translate(164,16)"/>
<path d="M0 0 C0.99 0.33 1.98 0.66 3 1 C3 7.27 3 13.54 3 20 C5.31 20 7.62 20 10 20 C9.855625 19.13117188 9.71125 18.26234375 9.5625 17.3671875 C9.376875 16.21476562 9.19125 15.06234375 9 13.875 C8.814375 12.73804687 8.62875 11.60109375 8.4375 10.4296875 C8.03043951 7.23862398 7.92190098 4.21182209 8 1 C8.66 1 9.32 1 10 1 C10.70132913 7.70019789 11.11044961 14.26257354 11 21 C7.49223216 22.60355101 4.85645121 23.22036864 1 23 C0.15808218 20.0751367 -0.11819313 17.49258344 -0.09765625 14.453125 C-0.09443359 13.60878906 -0.09121094 12.76445313 -0.08789062 11.89453125 C-0.07951172 11.02183594 -0.07113281 10.14914063 -0.0625 9.25 C-0.05798828 8.36183594 -0.05347656 7.47367187 -0.04882812 6.55859375 C-0.037074 4.37232671 -0.02064249 2.18619821 0 0 Z " fill="#062259" transform="translate(52,60)"/>
<path d="M0 0 C0 0.66 0 1.32 0 2 C2.64 2 5.28 2 8 2 C8 2.66 8 3.32 8 4 C3.38 4.66 -1.24 5.32 -6 6 C-6 6.66 -6 7.32 -6 8 C-5.34 8 -4.68 8 -4 8 C-4 8.99 -4 9.98 -4 11 C-9.94 10.01 -9.94 10.01 -16 9 C-15.67 7.68 -15.34 6.36 -15 5 C-13.02 5.495 -13.02 5.495 -11 6 C-10.34 5.01 -9.68 4.02 -9 3 C-9.33 2.34 -9.66 1.68 -10 1 C-6.78548731 -0.60725635 -3.56387464 -0.05748185 0 0 Z " fill="#1B449F" transform="translate(95,41)"/>
<path d="M0 0 C4.13621084 3.3810038 7.81316569 6.66590534 11 11 C10.01 11.495 10.01 11.495 9 12 C8.278125 11.236875 7.55625 10.47375 6.8125 9.6875 C4.2879965 7.27519665 2.00215432 5.72056239 -1 4 C-0.566875 5.03447266 -0.566875 5.03447266 -0.125 6.08984375 C2.36626081 12.39584768 3.4439483 17.22978835 3 24 C1.01600445 21.02400668 0.35492056 18.98682856 -0.5 15.5625 C-1.36640322 12.10159583 -2.40726575 9.17851333 -4 6 C-3.8125 3.875 -3.8125 3.875 -3 2 C-2.01 1.34 -1.02 0.68 0 0 Z " fill="#041A57" transform="translate(45,0)"/>
<path d="M0 0 C4.38462134 0.50109958 6.8000997 1.98295115 10 5 C10 5.66 10 6.32 10 7 C10.639375 7.309375 11.27875 7.61875 11.9375 7.9375 C14 9 14 9 15 10 C15.04080783 11.99958364 15.04254356 14.00045254 15 16 C14.4225 15.484375 13.845 14.96875 13.25 14.4375 C11.12172477 12.73494807 11.12172477 12.73494807 8.75 13.3125 C7.88375 13.6528125 7.88375 13.6528125 7 14 C7 12.68 7 11.36 7 10 C5.68 9.34 4.36 8.68 3 8 C3 7.34 3 6.68 3 6 C3.99 6 4.98 6 6 6 C5.01 5.38125 4.02 4.7625 3 4.125 C2.01 3.42375 1.02 2.7225 0 2 C0 1.34 0 0.68 0 0 Z " fill="#0A3084" transform="translate(161,49)"/>
<path d="M0 0 C9.24154826 -0.20871753 17.9400212 -0.14982548 27 2 C27 2.66 27 3.32 27 4 C27.57234375 4.11214844 28.1446875 4.22429688 28.734375 4.33984375 C31.24789112 5.07223034 33.05930543 6.13854853 35.25 7.5625 C35.95640625 8.01753906 36.6628125 8.47257812 37.390625 8.94140625 C37.92171875 9.29074219 38.4528125 9.64007813 39 10 C38.67 11.32 38.34 12.64 38 14 C37.505 12.515 37.505 12.515 37 11 C35.16505755 9.87121129 35.16505755 9.87121129 33 9 C32.37222656 8.68160156 31.74445313 8.36320312 31.09765625 8.03515625 C21.27472343 3.34051081 10.79850424 1.62756838 0 1 C0 0.67 0 0.34 0 0 Z " fill="#06225E" transform="translate(129,49)"/>
<path d="M0 0 C2.4375 1.0625 2.4375 1.0625 4 3 C5.0625 6.375 5.0625 6.375 5 10 C2.5625 12.9375 2.5625 12.9375 0 15 C0 11.77018017 0.81530252 9.96174371 2 7 C2 6.01 2 5.02 2 4 C-1.91184004 2.36924983 -1.91184004 2.36924983 -6 2 C-9.11363332 3.91972324 -11.53548486 6.31262977 -14 9 C-14.33 8.34 -14.66 7.68 -15 7 C-10.26292755 1.14098934 -7.94183874 -0.83349991 0 0 Z " fill="#061C5D" transform="translate(170,15)"/>
<path d="M0 0 C2.4375 0.1875 2.4375 0.1875 5 1 C6.3125 3.0625 6.3125 3.0625 7 5 C5.35 4.67 3.7 4.34 2 4 C2.28875 4.54269531 2.5775 5.08539063 2.875 5.64453125 C3.431875 6.71767578 3.431875 6.71767578 4 7.8125 C4.556875 8.87404297 4.556875 8.87404297 5.125 9.95703125 C6 12 6 12 6 15 C7.32 15 8.64 15 10 15 C9.34 16.98 8.68 18.96 8 21 C5.64347991 17.99242932 3.68340461 14.89317216 1.8125 11.5625 C1.28269531 10.63566406 0.75289063 9.70882813 0.20703125 8.75390625 C-1.05100968 5.88361869 -1.33278295 4.09324476 -1 1 C-0.67 0.67 -0.34 0.34 0 0 Z " fill="#032462" transform="translate(71,11)"/>
<path d="M0 0 C0.75 2.1875 0.75 2.1875 1 5 C-0.8125 7.8125 -0.8125 7.8125 -3 10 C-3.66 10 -4.32 10 -5 10 C-5 10.66 -5 11.32 -5 12 C-7.31 13.32 -9.62 14.64 -12 16 C-11.8125 14.1875 -11.8125 14.1875 -11 12 C-9.33720673 10.9935725 -7.67016516 9.99414593 -6 9 C-4.19203897 6.43389334 -4.19203897 6.43389334 -3 4 C-3.78375 4.515625 -4.5675 5.03125 -5.375 5.5625 C-6.24125 6.036875 -7.1075 6.51125 -8 7 C-8.66 6.67 -9.32 6.34 -10 6 C-8.90398831 4.99106869 -7.79786082 3.99311775 -6.6875 3 C-6.07261719 2.443125 -5.45773438 1.88625 -4.82421875 1.3125 C-3 0 -3 0 0 0 Z " fill="#06205F" transform="translate(140,12)"/>
<path d="M0 0 C2.375 0.9375 2.375 0.9375 5 3 C5.72748367 5.34740369 6.12223954 7.60419554 6.4453125 10.0390625 C6.71988281 11.00972656 6.71988281 11.00972656 7 12 C7.99 12.33 8.98 12.66 10 13 C11.16796875 15.1796875 11.16796875 15.1796875 12.1875 17.875 C12.53167969 18.75929688 12.87585938 19.64359375 13.23046875 20.5546875 C14 23 14 23 14 26 C14.66 26.33 15.32 26.66 16 27 C14.14086914 26.77075195 14.14086914 26.77075195 12 26 C10.76733398 24.11401367 10.76733398 24.11401367 9.74609375 21.66796875 C9.36646484 20.78689453 8.98683594 19.90582031 8.59570312 18.99804688 C8.21349609 18.07056641 7.83128906 17.14308594 7.4375 16.1875 C6.66991384 14.36656522 5.89792225 12.54747989 5.12109375 10.73046875 C4.7852124 9.91989014 4.44933105 9.10931152 4.10327148 8.27416992 C3.05563535 5.92939937 3.05563535 5.92939937 1.36743164 3.8293457 C0 2 0 2 0 0 Z " fill="#092157" transform="translate(105,14)"/>
<path d="M0 0 C0.66 0 1.32 0 2 0 C2.103125 0.639375 2.20625 1.27875 2.3125 1.9375 C2.539375 2.618125 2.76625 3.29875 3 4 C3.99 4.33 4.98 4.66 6 5 C8.6344781 9.26450635 10.65499928 13.9237556 10 19 C9.01 18.67 8.02 18.34 7 18 C5.9375 15.78515625 5.9375 15.78515625 5 13.0625 C3.56652893 8.787909 3.56652893 8.787909 0 6 C-0.1875 2.875 -0.1875 2.875 0 0 Z " fill="#0F3388" transform="translate(105,8)"/>
<path d="M0 0 C0.33 0 0.66 0 1 0 C1 6.27 1 12.54 1 19 C0.01 18.01 -0.98 17.02 -2 16 C-2.99 15.34 -3.98 14.68 -5 14 C-4.01 12.35 -3.02 10.7 -2 9 C-4.31 9 -6.62 9 -9 9 C-9 8.67 -9 8.34 -9 8 C-7.6078125 7.9690625 -7.6078125 7.9690625 -6.1875 7.9375 C-2.99303786 7.37155641 -2.99303786 7.37155641 -1.93359375 5.375 C-1.20025229 3.61781467 -0.59224075 1.80962451 0 0 Z " fill="#0E1C4A" transform="translate(180,23)"/>
<path d="M0 0 C0.33 0 0.66 0 1 0 C5.63106796 23.73786408 5.63106796 23.73786408 4 27 C3.34 26.67 2.68 26.34 2 26 C-0.40168373 17.5348061 -0.23209692 8.71652895 0 0 Z " fill="#072165" transform="translate(54,24)"/>
<path d="M0 0 C4.42857143 5.14285714 4.42857143 5.14285714 5 9 C5.99 9 6.98 9 8 9 C7.67 9.99 7.34 10.98 7 12 C3 12 3 12 1.25 10.5 C0.8375 10.005 0.425 9.51 0 9 C0.33 9.99 0.66 10.98 1 12 C0.01 12.33 -0.98 12.66 -2 13 C-2.99 12.01 -3.98 11.02 -5 10 C-4.01 9.67 -3.02 9.34 -2 9 C-2.33 7.68 -2.66 6.36 -3 5 C-1 5 -1 5 0.625 6.5 C1.07875 6.995 1.5325 7.49 2 8 C1.01 5.69 0.02 3.38 -1 1 C-0.67 0.67 -0.34 0.34 0 0 Z " fill="#052363" transform="translate(111,33)"/>
<path d="M0 0 C1.32 0 2.64 0 4 0 C4 2.31 4 4.62 4 7 C3.34 7 2.68 7 2 7 C2 7.66 2 8.32 2 9 C0.35 9.33 -1.3 9.66 -3 10 C-3.33 9.34 -3.66 8.68 -4 8 C-3.22265625 6.0546875 -3.22265625 6.0546875 -2.0625 3.875 C-1.49208984 2.78832031 -1.49208984 2.78832031 -0.91015625 1.6796875 C-0.60980469 1.12539063 -0.30945313 0.57109375 0 0 Z " fill="#3D1624" transform="translate(104,20)"/>
<path d="M0 0 C-3.94021786 2.6268119 -7.89113881 3.49573542 -12.4375 4.6875 C-13.29666016 4.92533203 -14.15582031 5.16316406 -15.04101562 5.40820312 C-15.87181641 5.62798828 -16.70261719 5.84777344 -17.55859375 6.07421875 C-18.31454834 6.27619873 -19.07050293 6.47817871 -19.84936523 6.6862793 C-22.20250616 7.02954029 -23.75475491 6.72719845 -26 6 C-22.42211911 4.79561349 -18.83698135 3.61447826 -15.25 2.4375 C-14.23421875 2.09525391 -13.2184375 1.75300781 -12.171875 1.40039062 C-11.1921875 1.08134766 -10.2125 0.76230469 -9.203125 0.43359375 C-8.30239258 0.13509521 -7.40166016 -0.16340332 -6.47363281 -0.47094727 C-3.88194396 -1.02524945 -2.47168427 -0.87013375 0 0 Z " fill="#12307F" transform="translate(46,59)"/>
<path d="M0 0 C-0.33 0.66 -0.66 1.32 -1 2 C-8.26 2 -15.52 2 -23 2 C-23.33 1.34 -23.66 0.68 -24 0 C-21.31404768 -0.39277143 -18.62781643 -0.76451095 -15.9375 -1.125 C-14.80924805 -1.29322266 -14.80924805 -1.29322266 -13.65820312 -1.46484375 C-8.51073451 -2.13334617 -4.89340494 -1.75460735 0 0 Z " fill="#062263" transform="translate(128,48)"/>
<path d="M0 0 C0 2.97 0 5.94 0 9 C-0.66 9 -1.32 9 -2 9 C-2.33 7.02 -2.66 5.04 -3 3 C-4.98 3 -6.96 3 -9 3 C-9 2.01 -9 1.02 -9 0 C-5.93109813 -1.53445094 -3.29905734 -0.54984289 0 0 Z " fill="#452D40" transform="translate(181,49)"/>
<path d="M0 0 C0.99 0.33 1.98 0.66 3 1 C3.1875 3.875 3.1875 3.875 3 7 C0 9 0 9 -4 9 C-5 6 -5 6 -4 3 C-2.125 1.25 -2.125 1.25 0 0 Z M0 3 C-0.99 4.485 -0.99 4.485 -2 6 C-1.01 6 -0.02 6 1 6 C1.33 5.01 1.66 4.02 2 3 C1.34 3 0.68 3 0 3 Z " fill="#05216A" transform="translate(165,19)"/>
<path d="M0 0 C4.38462134 0.50109958 6.8000997 1.98295115 10 5 C10 5.66 10 6.32 10 7 C10.639375 7.28875 11.27875 7.5775 11.9375 7.875 C14 9 14 9 15 11 C10.10187531 10.58016074 8.305919 8.47121495 5 5 C4.071875 4.443125 3.14375 3.88625 2.1875 3.3125 C1.465625 2.879375 0.74375 2.44625 0 2 C0 1.34 0 0.68 0 0 Z " fill="#0C2460" transform="translate(161,49)"/>
<path d="M0 0 C0 3 0 3 -2.1875 5.5 C-4.69738253 7.73100669 -7.05966711 9.40381929 -10 11 C-10 8 -10 8 -8 5 C-6.68 5 -5.36 5 -4 5 C-3.8453125 4.0409375 -3.8453125 4.0409375 -3.6875 3.0625 C-3.460625 2.381875 -3.23375 1.70125 -3 1 C-2.01 0.67 -1.02 0.34 0 0 Z " fill="#103385" transform="translate(137,15)"/>
<path d="M0 0 C0.33 0.66 0.66 1.32 1 2 C0.175 2.45375 -0.65 2.9075 -1.5 3.375 C-2.7375 4.179375 -2.7375 4.179375 -4 5 C-4 5.66 -4 6.32 -4 7 C-5.98 7.33 -7.96 7.66 -10 8 C-10 6.68 -10 5.36 -10 4 C-6.7 2.68 -3.4 1.36 0 0 Z " fill="#061B49" transform="translate(10,66)"/>
<path d="M0 0 C0.350625 0.474375 0.70125 0.94875 1.0625 1.4375 C3.84163543 3.67873825 6.5144717 3.67117658 10 4 C9.67 5.32 9.34 6.64 9 8 C7.51515588 7.60404157 6.0371169 7.18249294 4.5625 6.75 C3.73878906 6.51796875 2.91507813 6.2859375 2.06640625 6.046875 C0 5 0 5 -0.84765625 2.953125 C-0.89792969 2.30859375 -0.94820312 1.6640625 -1 1 C-0.67 0.67 -0.34 0.34 0 0 Z " fill="#102E7F" transform="translate(168,28)"/>
<path d="M0 0 C0.6875 2.3125 0.6875 2.3125 1 5 C-0.4375 6.8125 -0.4375 6.8125 -2 8 C-1.67 6.35 -1.34 4.7 -1 3 C-1.928125 3.495 -2.85625 3.99 -3.8125 4.5 C-7 6 -7 6 -10 6 C-8.90398831 4.99106869 -7.79786082 3.99311775 -6.6875 3 C-6.07261719 2.443125 -5.45773438 1.88625 -4.82421875 1.3125 C-3 0 -3 0 0 0 Z " fill="#0B1A51" transform="translate(140,12)"/>
<path d="M0 0 C2.4375 0.1875 2.4375 0.1875 5 1 C6.3125 3.0625 6.3125 3.0625 7 5 C5.35 4.67 3.7 4.34 2 4 C2 5.65 2 7.3 2 9 C0.5 7.8125 0.5 7.8125 -1 6 C-1.25 3.375 -1.25 3.375 -1 1 C-0.67 0.67 -0.34 0.34 0 0 Z " fill="#0D2258" transform="translate(71,11)"/>
<path d="M0 0 C0.33 0.66 0.66 1.32 1 2 C1.99 2.33 2.98 2.66 4 3 C3.01 3.8971875 3.01 3.8971875 2 4.8125 C-0.3373846 6.87501834 -0.3373846 6.87501834 0 10 C-1.32 9.67 -2.64 9.34 -4 9 C-4.33 7.68 -4.66 6.36 -5 5 C-3.35 4.67 -1.7 4.34 0 4 C0 2.68 0 1.36 0 0 Z " fill="#0B3694" transform="translate(58,52)"/>
<path d="M0 0 C1.79133978 -0.05391993 3.58313899 -0.09275571 5.375 -0.125 C6.37273437 -0.14820313 7.37046875 -0.17140625 8.3984375 -0.1953125 C11 0 11 0 13 2 C12 3 12 3 8.1875 3.125 C5.31082025 3.09401243 2.75227001 2.91742334 0 2 C0 1.34 0 0.68 0 0 Z " fill="#09318F" transform="translate(128,45)"/>
<path d="M0 0 C2.7920147 1.39600735 3.00162933 3.00416384 4.125 5.875 C4.47820312 6.75929688 4.83140625 7.64359375 5.1953125 8.5546875 C6 11 6 11 6 14 C6.66 14.33 7.32 14.66 8 15 C6.1875 14.875 6.1875 14.875 4 14 C1.00065858 9.44544451 0.45722496 5.30380952 0 0 Z " fill="#062267" transform="translate(113,26)"/>
<path d="M0 0 C0.66 0 1.32 0 2 0 C2 0.66 2 1.32 2 2 C2.99 2 3.98 2 5 2 C5.77321882 4.98241547 6.41196203 7.97580475 7 11 C4 10 4 10 2.83203125 8.22265625 C2.49558594 7.50980469 2.15914063 6.79695313 1.8125 6.0625 C1.46832031 5.35222656 1.12414062 4.64195313 0.76953125 3.91015625 C0 2 0 2 0 0 Z " fill="#12317D" transform="translate(106,30)"/>
<path d="M0 0 C0 0.33 0 0.66 0 1 C-4.873261 2.5912689 -8.80790596 3.21192221 -14 3 C-13.67 2.34 -13.34 1.68 -13 1 C-8.27219237 -0.49713908 -4.85603184 -1.51750995 0 0 Z " fill="#092466" transform="translate(75,49)"/>
<path d="M0 0 C0.33 0 0.66 0 1 0 C1 2.97 1 5.94 1 9 C-2.3 9 -5.6 9 -9 9 C-9 8.67 -9 8.34 -9 8 C-7.6078125 7.9690625 -7.6078125 7.9690625 -6.1875 7.9375 C-2.99303786 7.37155641 -2.99303786 7.37155641 -1.93359375 5.375 C-1.20025229 3.61781467 -0.59224075 1.80962451 0 0 Z " fill="#091439" transform="translate(180,23)"/>
<path d="M0 0 C0.598125 0.226875 1.19625 0.45375 1.8125 0.6875 C1.338125 1.038125 0.86375 1.38875 0.375 1.75 C-1.86623825 4.52913543 -1.85867658 7.2019717 -2.1875 10.6875 C-4.90403543 5.61663386 -4.90403543 5.61663386 -5.1875 2.6875 C-3.58493056 0.24147296 -2.95482043 -0.4221172 0 0 Z " fill="#05296E" transform="translate(62.1875,55.3125)"/>
<path d="M0 0 C0.79921875 0.11085937 1.5984375 0.22171875 2.421875 0.3359375 C3.32679687 0.47902344 3.32679687 0.47902344 4.25 0.625 C4.25 0.955 4.25 1.285 4.25 1.625 C2.83461283 1.96372513 1.41762037 2.29574624 0 2.625 C-0.78890625 2.810625 -1.5778125 2.99625 -2.390625 3.1875 C-4.75 3.625 -4.75 3.625 -8.75 3.625 C-8.75 2.965 -8.75 2.305 -8.75 1.625 C-5.5750906 -0.2828584 -3.64414789 -0.5359041 0 0 Z " fill="#082262" transform="translate(72.75,52.375)"/>
<path d="M0 0 C0.99 0 1.98 0 3 0 C3 0.66 3 1.32 3 2 C4.32 2.33 5.64 2.66 7 3 C7 3.99 7 4.98 7 6 C4.03 5.67 1.06 5.34 -2 5 C-2 4.34 -2 3.68 -2 3 C-1.01 3 -0.02 3 1 3 C0.67 2.01 0.34 1.02 0 0 Z " fill="#0F317F" transform="translate(102,42)"/>
<path d="M0 0 C1.65 0 3.3 0 5 0 C5.66 1.32 6.32 2.64 7 4 C5.35 3.67 3.7 3.34 2 3 C2 5.31 2 7.62 2 10 C1.34 9.67 0.68 9.34 0 9 C0 6.03 0 3.06 0 0 Z " fill="#052377" transform="translate(52,21)"/>
<path d="M0 0 C0.33 0.66 0.66 1.32 1 2 C3.12576782 2.46651207 3.12576782 2.46651207 5.5625 2.625 C6.38878906 2.69976562 7.21507813 2.77453125 8.06640625 2.8515625 C8.70449219 2.90054688 9.34257813 2.94953125 10 3 C9.360625 3.28875 8.72125 3.5775 8.0625 3.875 C5.84793921 4.82823451 5.84793921 4.82823451 5 7 C3.0625 6.3125 3.0625 6.3125 1 5 C0.25 2.375 0.25 2.375 0 0 Z " fill="#0E2D80" transform="translate(58,49)"/>
<path d="M0 0 C0.66 0.99 1.32 1.98 2 3 C2.99 2.01 3.98 1.02 5 0 C5 1.32 5 2.64 5 4 C4.01 4.33 3.02 4.66 2 5 C1.26676204 7.01508358 1.26676204 7.01508358 1 9 C-1.09230769 4.56923077 -1.09230769 4.56923077 -0.625 1.6875 C-0.41875 1.130625 -0.2125 0.57375 0 0 Z " fill="#042E87" transform="translate(122,29)"/>
<path d="M0 0 C0.66 0.66 1.32 1.32 2 2 C1.34 3.32 0.68 4.64 0 6 C0.66 6 1.32 6 2 6 C2.33 6.99 2.66 7.98 3 9 C1.02 9.99 1.02 9.99 -1 11 C-2.25 3.375 -2.25 3.375 0 0 Z " fill="#06256C" transform="translate(157,21)"/>
<path d="M0 0 C0.33 0.99 0.66 1.98 1 3 C1.66 3.33 2.32 3.66 3 4 C2.01 5.32 1.02 6.64 0 8 C-1.32 7.67 -2.64 7.34 -4 7 C-3.67 5.68 -3.34 4.36 -3 3 C-2.34 3.33 -1.68 3.66 -1 4 C-0.67 2.68 -0.34 1.36 0 0 Z " fill="#082A76" transform="translate(84,40)"/>
<path d="M0 0 C0.66 0 1.32 0 2 0 C2.33 1.32 2.66 2.64 3 4 C3.66 4 4.32 4 5 4 C4.67 4.99 4.34 5.98 4 7 C2.68 6.67 1.36 6.34 0 6 C0 4.02 0 2.04 0 0 Z " fill="#112C80" transform="translate(105,8)"/>
<path d="M0 0 C1.46067199 0.45082469 2.91848032 0.91093537 4.375 1.375 C5.18710938 1.63023438 5.99921875 1.88546875 6.8359375 2.1484375 C9 3 9 3 11 5 C6.94393835 4.53199289 3.53411321 4.12046792 0 2 C0 1.34 0 0.68 0 0 Z " fill="#0B2567" transform="translate(106,58)"/>
<path d="M0 0 C0.99 0 1.98 0 3 0 C3.33 1.98 3.66 3.96 4 6 C2.02 6 0.04 6 -2 6 C-0.68 5.34 0.64 4.68 2 4 C0.35 3.67 -1.3 3.34 -3 3 C-2.01 2.67 -1.02 2.34 0 2 C0 1.34 0 0.68 0 0 Z " fill="#022260" transform="translate(95,34)"/>
<path d="M0 0 C1.62463842 -0.05395478 3.24978541 -0.09277195 4.875 -0.125 C5.77992187 -0.14820312 6.68484375 -0.17140625 7.6171875 -0.1953125 C10 0 10 0 12 2 C7.47907032 3.45606519 4.48351204 2.27032841 0 1 C0 0.67 0 0.34 0 0 Z " fill="#071B56" transform="translate(89,30)"/>
<path d="M0 0 C3.34373475 0.55728913 6.03312999 1.35173889 9 3 C8.67 3.99 8.34 4.98 8 6 C5.36 4.68 2.72 3.36 0 2 C0 1.34 0 0.68 0 0 Z " fill="#0C215F" transform="translate(96,54)"/>
<path d="M0 0 C-0.66 0.66 -1.32 1.32 -2 2 C-5.44165321 1.64700993 -7.06872538 0.95418308 -10 -1 C-6.06329512 -2.31223496 -3.87511856 -1.24296256 0 0 Z " fill="#0C3494" transform="translate(158,49)"/>
<path d="M0 0 C3.63 0 7.26 0 11 0 C10.67 0.99 10.34 1.98 10 3 C8.68 3 7.36 3 6 3 C6 2.34 6 1.68 6 1 C4.02 1 2.04 1 0 1 C0 0.67 0 0.34 0 0 Z " fill="#0D2171" transform="translate(165,35)"/>
<path d="M0 0 C0.33 0.66 0.66 1.32 1 2 C0.401875 2.0825 -0.19625 2.165 -0.8125 2.25 C-3.5966296 3.20455872 -4.43311142 4.57132271 -6 7 C-6.99 6.67 -7.98 6.34 -9 6 C-3.85714286 0.42857143 -3.85714286 0.42857143 0 0 Z " fill="#052062" transform="translate(132,18)"/>
<path d="M0 0 C-0.66 0 -1.32 0 -2 0 C-2.33 0.99 -2.66 1.98 -3 3 C-4.98 3 -6.96 3 -9 3 C-7 0 -7 0 -5.0625 -0.75 C-3 -1 -3 -1 0 0 Z " fill="#0C236E" transform="translate(48,56)"/>
<path d="M0 0 C2.96404505 2.80804268 5.44499019 5.18315774 7 9 C3.46352496 7.32482761 2.2088437 6.50719183 0.6875 2.8125 C0.460625 1.884375 0.23375 0.95625 0 0 Z " fill="#102965" transform="translate(73,36)"/>
<path d="M0 0 C2 1 2 1 3 3 C2.01 4.32 1.02 5.64 0 7 C-0.66 5.35 -1.32 3.7 -2 2 C-1.34 2 -0.68 2 0 2 C0 1.34 0 0.68 0 0 Z " fill="#123590" transform="translate(124,26)"/>
<path d="" fill="#000055" transform="translate(0,0)"/>
</svg>
